<mxfile host="app.diagrams.net" modified="2023-11-20T14:12:47.099Z" agent="Mozilla/5.0 (Windows NT 10.0; Win64; x64) AppleWebKit/537.36 (KHTML, like Gecko) Chrome/119.0.0.0 Safari/537.36" etag="KIcVDcrvbdiFSGtSCA4x" version="22.1.3" type="device" pages="3">
  <diagram name="EndsWith3AndWith5UnderMinorDiagonalCount" id="fk6J86xwY50ENDCyKhGJ">
    <mxGraphModel dx="2049" dy="1083" grid="0" gridSize="10" guides="1" tooltips="1" connect="1" arrows="1" fold="1" page="1" pageScale="1" pageWidth="1600" pageHeight="1200" math="0" shadow="0">
      <root>
        <mxCell id="0" />
        <mxCell id="1" parent="0" />
        <mxCell id="Dx3A27PK3qYm2y0LI6H_-5" style="edgeStyle=orthogonalEdgeStyle;rounded=0;orthogonalLoop=1;jettySize=auto;html=1;exitX=0.5;exitY=1;exitDx=0;exitDy=0;entryX=0.5;entryY=0;entryDx=0;entryDy=0;fontFamily=Helvetica;fontSize=16;fontColor=default;endArrow=none;endFill=0;strokeWidth=2;" parent="1" source="Dx3A27PK3qYm2y0LI6H_-1" target="Dx3A27PK3qYm2y0LI6H_-4" edge="1">
          <mxGeometry relative="1" as="geometry" />
        </mxCell>
        <mxCell id="Dx3A27PK3qYm2y0LI6H_-1" value="&lt;font style=&quot;font-size: 16px;&quot;&gt;create_array_7&lt;/font&gt;" style="rounded=1;whiteSpace=wrap;html=1;arcSize=50;strokeWidth=2;fontFamily=Helvetica;fontSize=16;" parent="1" vertex="1">
          <mxGeometry x="380" y="180" width="310" height="70" as="geometry" />
        </mxCell>
        <mxCell id="Dx3A27PK3qYm2y0LI6H_-2" value="&lt;font face=&quot;Cascadia Mono&quot; style=&quot;font-size: 16px;&quot;&gt;Входные параметры:&lt;br style=&quot;font-size: 16px;&quot;&gt;matr — матрица&lt;br style=&quot;font-size: 16px;&quot;&gt;n,m — длины сторон матрицы&lt;br style=&quot;font-size: 16px;&quot;&gt;&lt;br style=&quot;font-size: 16px;&quot;&gt;Выходные параметры:&lt;br style=&quot;font-size: 16px;&quot;&gt;arr - конечный массив, состоящий из&lt;br&gt;элементов, больших границы&lt;br style=&quot;font-size: 16px;&quot;&gt;&lt;/font&gt;" style="strokeWidth=2;html=1;shape=mxgraph.flowchart.annotation_1;align=left;pointerEvents=1;rounded=1;strokeColor=default;verticalAlign=middle;fontFamily=Helvetica;fontSize=16;fontColor=default;fillColor=default;spacingLeft=30;" parent="1" vertex="1">
          <mxGeometry x="720" y="145" width="30" height="140" as="geometry" />
        </mxCell>
        <mxCell id="Dx3A27PK3qYm2y0LI6H_-3" style="rounded=0;orthogonalLoop=1;jettySize=auto;html=1;exitX=1;exitY=0.5;exitDx=0;exitDy=0;entryX=0;entryY=0.5;entryDx=0;entryDy=0;entryPerimeter=0;fontFamily=Helvetica;fontSize=16;fontColor=default;dashed=1;strokeWidth=2;endArrow=none;endFill=0;dashPattern=1 2;" parent="1" source="Dx3A27PK3qYm2y0LI6H_-1" target="Dx3A27PK3qYm2y0LI6H_-2" edge="1">
          <mxGeometry relative="1" as="geometry" />
        </mxCell>
        <mxCell id="Dx3A27PK3qYm2y0LI6H_-7" style="edgeStyle=orthogonalEdgeStyle;shape=connector;rounded=0;orthogonalLoop=1;jettySize=auto;html=1;exitX=0.5;exitY=1;exitDx=0;exitDy=0;entryX=0.5;entryY=0;entryDx=0;entryDy=0;labelBackgroundColor=default;strokeColor=default;strokeWidth=2;align=center;verticalAlign=middle;fontFamily=Helvetica;fontSize=16;fontColor=default;endArrow=none;endFill=0;" parent="1" source="Dx3A27PK3qYm2y0LI6H_-4" target="Dx3A27PK3qYm2y0LI6H_-6" edge="1">
          <mxGeometry relative="1" as="geometry" />
        </mxCell>
        <mxCell id="Dx3A27PK3qYm2y0LI6H_-4" value="h = 0" style="rounded=0;whiteSpace=wrap;html=1;strokeColor=default;strokeWidth=2;align=center;verticalAlign=middle;fontFamily=Helvetica;fontSize=16;fontColor=default;fillColor=default;" parent="1" vertex="1">
          <mxGeometry x="380" y="290" width="310" height="60" as="geometry" />
        </mxCell>
        <mxCell id="Dx3A27PK3qYm2y0LI6H_-11" style="edgeStyle=orthogonalEdgeStyle;shape=connector;rounded=0;orthogonalLoop=1;jettySize=auto;html=1;exitX=0.5;exitY=1;exitDx=0;exitDy=0;entryX=0.5;entryY=0;entryDx=0;entryDy=0;labelBackgroundColor=default;strokeColor=default;strokeWidth=2;align=center;verticalAlign=middle;fontFamily=Helvetica;fontSize=16;fontColor=default;endArrow=none;endFill=0;" parent="1" source="Dx3A27PK3qYm2y0LI6H_-6" target="Dx3A27PK3qYm2y0LI6H_-9" edge="1">
          <mxGeometry relative="1" as="geometry" />
        </mxCell>
        <mxCell id="Dx3A27PK3qYm2y0LI6H_-6" value="mean = get_mean(matr,n,m)" style="rounded=0;whiteSpace=wrap;html=1;strokeColor=default;strokeWidth=2;align=center;verticalAlign=middle;fontFamily=Helvetica;fontSize=16;fontColor=default;fillColor=default;" parent="1" vertex="1">
          <mxGeometry x="380" y="390" width="310" height="60" as="geometry" />
        </mxCell>
        <mxCell id="Dx3A27PK3qYm2y0LI6H_-15" style="edgeStyle=orthogonalEdgeStyle;shape=connector;rounded=0;orthogonalLoop=1;jettySize=auto;html=1;exitX=0.5;exitY=1;exitDx=0;exitDy=0;entryX=0.5;entryY=0;entryDx=0;entryDy=0;labelBackgroundColor=default;strokeColor=default;strokeWidth=2;align=center;verticalAlign=middle;fontFamily=Cascadia Mono;fontSize=16;fontColor=default;endArrow=none;endFill=0;" parent="1" source="Dx3A27PK3qYm2y0LI6H_-9" target="Dx3A27PK3qYm2y0LI6H_-12" edge="1">
          <mxGeometry relative="1" as="geometry" />
        </mxCell>
        <mxCell id="Dx3A27PK3qYm2y0LI6H_-9" value="i = 0; i &amp;lt; n; i++" style="shape=loopLimit;whiteSpace=wrap;html=1;rounded=0;strokeColor=default;strokeWidth=2;align=center;verticalAlign=middle;fontFamily=Helvetica;fontSize=16;fontColor=default;fillColor=default;arcSize=0;" parent="1" vertex="1">
          <mxGeometry x="380" y="490" width="310" height="60" as="geometry" />
        </mxCell>
        <mxCell id="Dx3A27PK3qYm2y0LI6H_-14" style="edgeStyle=orthogonalEdgeStyle;shape=connector;rounded=0;orthogonalLoop=1;jettySize=auto;html=1;exitX=0.5;exitY=1;exitDx=0;exitDy=0;entryX=0.5;entryY=0;entryDx=0;entryDy=0;labelBackgroundColor=default;strokeColor=default;strokeWidth=2;align=center;verticalAlign=middle;fontFamily=Cascadia Mono;fontSize=16;fontColor=default;endArrow=none;endFill=0;" parent="1" source="Dx3A27PK3qYm2y0LI6H_-10" target="Dx3A27PK3qYm2y0LI6H_-13" edge="1">
          <mxGeometry relative="1" as="geometry" />
        </mxCell>
        <mxCell id="Dx3A27PK3qYm2y0LI6H_-10" value="j" style="shape=loopLimit;whiteSpace=wrap;html=1;rounded=1;strokeColor=default;strokeWidth=2;align=center;verticalAlign=middle;fontFamily=Helvetica;fontSize=16;fontColor=default;fillColor=default;arcSize=0;flipV=1;" parent="1" vertex="1">
          <mxGeometry x="380" y="920" width="310" height="60" as="geometry" />
        </mxCell>
        <mxCell id="Dx3A27PK3qYm2y0LI6H_-17" style="edgeStyle=orthogonalEdgeStyle;shape=connector;rounded=0;orthogonalLoop=1;jettySize=auto;html=1;exitX=0.5;exitY=1;exitDx=0;exitDy=0;entryX=0.5;entryY=0;entryDx=0;entryDy=0;labelBackgroundColor=default;strokeColor=default;strokeWidth=2;align=center;verticalAlign=middle;fontFamily=Cascadia Mono;fontSize=16;fontColor=default;endArrow=none;endFill=0;" parent="1" source="Dx3A27PK3qYm2y0LI6H_-12" target="Dx3A27PK3qYm2y0LI6H_-16" edge="1">
          <mxGeometry relative="1" as="geometry" />
        </mxCell>
        <mxCell id="Dx3A27PK3qYm2y0LI6H_-12" value="j = 0; j &amp;lt; m; j++" style="shape=loopLimit;whiteSpace=wrap;html=1;rounded=0;strokeColor=default;strokeWidth=2;align=center;verticalAlign=middle;fontFamily=Helvetica;fontSize=16;fontColor=default;fillColor=default;arcSize=0;size=20;" parent="1" vertex="1">
          <mxGeometry x="380" y="590" width="310" height="60" as="geometry" />
        </mxCell>
        <mxCell id="Dx3A27PK3qYm2y0LI6H_-34" style="edgeStyle=orthogonalEdgeStyle;shape=connector;rounded=0;orthogonalLoop=1;jettySize=auto;html=1;exitX=0.5;exitY=1;exitDx=0;exitDy=0;entryX=0.5;entryY=0;entryDx=0;entryDy=0;labelBackgroundColor=default;strokeColor=default;strokeWidth=2;align=center;verticalAlign=middle;fontFamily=Cascadia Mono;fontSize=16;fontColor=default;endArrow=none;endFill=0;" parent="1" source="Dx3A27PK3qYm2y0LI6H_-13" target="Dx3A27PK3qYm2y0LI6H_-33" edge="1">
          <mxGeometry relative="1" as="geometry" />
        </mxCell>
        <mxCell id="Dx3A27PK3qYm2y0LI6H_-13" value="i" style="shape=loopLimit;whiteSpace=wrap;html=1;rounded=1;strokeColor=default;strokeWidth=2;align=center;verticalAlign=middle;fontFamily=Helvetica;fontSize=16;fontColor=default;fillColor=default;arcSize=0;flipV=1;" parent="1" vertex="1">
          <mxGeometry x="380" y="1010" width="310" height="60" as="geometry" />
        </mxCell>
        <mxCell id="Dx3A27PK3qYm2y0LI6H_-19" style="edgeStyle=orthogonalEdgeStyle;shape=connector;rounded=0;orthogonalLoop=1;jettySize=auto;html=1;exitX=1;exitY=0.5;exitDx=0;exitDy=0;entryX=0.5;entryY=0;entryDx=0;entryDy=0;labelBackgroundColor=default;strokeColor=default;strokeWidth=2;align=center;verticalAlign=middle;fontFamily=Cascadia Mono;fontSize=16;fontColor=default;endArrow=none;endFill=0;" parent="1" source="Dx3A27PK3qYm2y0LI6H_-16" target="Dx3A27PK3qYm2y0LI6H_-18" edge="1">
          <mxGeometry relative="1" as="geometry" />
        </mxCell>
        <mxCell id="Dx3A27PK3qYm2y0LI6H_-28" value="да" style="edgeLabel;html=1;align=center;verticalAlign=middle;resizable=0;points=[];fontSize=16;fontFamily=Cascadia Mono;fontColor=default;" parent="Dx3A27PK3qYm2y0LI6H_-19" vertex="1" connectable="0">
          <mxGeometry x="-0.39" y="-1" relative="1" as="geometry">
            <mxPoint as="offset" />
          </mxGeometry>
        </mxCell>
        <mxCell id="Dx3A27PK3qYm2y0LI6H_-26" style="edgeStyle=orthogonalEdgeStyle;shape=connector;rounded=0;orthogonalLoop=1;jettySize=auto;html=1;exitX=0;exitY=0.5;exitDx=0;exitDy=0;labelBackgroundColor=default;strokeColor=default;strokeWidth=2;align=center;verticalAlign=middle;fontFamily=Cascadia Mono;fontSize=16;fontColor=default;endArrow=none;endFill=0;entryX=0.5;entryY=0;entryDx=0;entryDy=0;" parent="1" source="Dx3A27PK3qYm2y0LI6H_-16" target="Dx3A27PK3qYm2y0LI6H_-10" edge="1">
          <mxGeometry relative="1" as="geometry">
            <Array as="points">
              <mxPoint x="310" y="730" />
              <mxPoint x="310" y="890" />
              <mxPoint x="535" y="890" />
            </Array>
            <mxPoint x="530" y="980" as="targetPoint" />
          </mxGeometry>
        </mxCell>
        <mxCell id="Dx3A27PK3qYm2y0LI6H_-27" value="нет" style="edgeLabel;html=1;align=center;verticalAlign=middle;resizable=0;points=[];fontSize=16;fontFamily=Cascadia Mono;fontColor=default;" parent="Dx3A27PK3qYm2y0LI6H_-26" vertex="1" connectable="0">
          <mxGeometry x="-0.8484" y="5" relative="1" as="geometry">
            <mxPoint y="-5" as="offset" />
          </mxGeometry>
        </mxCell>
        <mxCell id="Dx3A27PK3qYm2y0LI6H_-16" value="matr[i][j] &amp;gt; mean" style="rhombus;whiteSpace=wrap;html=1;rounded=0;strokeColor=default;strokeWidth=2;align=center;verticalAlign=middle;fontFamily=Helvetica;fontSize=16;fontColor=default;fillColor=default;arcSize=0;" parent="1" vertex="1">
          <mxGeometry x="380" y="690" width="310" height="80" as="geometry" />
        </mxCell>
        <mxCell id="Dx3A27PK3qYm2y0LI6H_-25" style="edgeStyle=orthogonalEdgeStyle;shape=connector;rounded=0;orthogonalLoop=1;jettySize=auto;html=1;exitX=0.5;exitY=1;exitDx=0;exitDy=0;entryX=0.5;entryY=0;entryDx=0;entryDy=0;labelBackgroundColor=default;strokeColor=default;strokeWidth=2;align=center;verticalAlign=middle;fontFamily=Cascadia Mono;fontSize=16;fontColor=default;endArrow=none;endFill=0;" parent="1" source="Dx3A27PK3qYm2y0LI6H_-18" edge="1">
          <mxGeometry relative="1" as="geometry">
            <mxPoint x="535" y="910" as="targetPoint" />
          </mxGeometry>
        </mxCell>
        <mxCell id="Dx3A27PK3qYm2y0LI6H_-18" value="arr[h++] = matr[i][j]" style="rounded=0;whiteSpace=wrap;html=1;strokeColor=default;strokeWidth=2;align=center;verticalAlign=middle;fontFamily=Cascadia Mono;fontSize=16;fontColor=default;fillColor=default;" parent="1" vertex="1">
          <mxGeometry x="690" y="810" width="280" height="60" as="geometry" />
        </mxCell>
        <mxCell id="Dx3A27PK3qYm2y0LI6H_-33" value="&lt;font style=&quot;font-size: 19px;&quot;&gt;Конец&lt;/font&gt;" style="rounded=1;whiteSpace=wrap;html=1;arcSize=50;strokeWidth=2;fontFamily=Helvetica;fontSize=19;" parent="1" vertex="1">
          <mxGeometry x="380" y="1100" width="310" height="70" as="geometry" />
        </mxCell>
      </root>
    </mxGraphModel>
  </diagram>
  <diagram id="q-QGk_TiaAlGRaMOx_p1" name="CreateArrayAboveThreshold">
    <mxGraphModel dx="1371" dy="884" grid="1" gridSize="10" guides="1" tooltips="1" connect="1" arrows="1" fold="1" page="1" pageScale="1" pageWidth="1600" pageHeight="1200" math="0" shadow="0">
      <root>
        <mxCell id="0" />
        <mxCell id="1" parent="0" />
        <mxCell id="G_j7bIVwT-zga_MA3Yqq-1" style="edgeStyle=orthogonalEdgeStyle;rounded=0;orthogonalLoop=1;jettySize=auto;html=1;exitX=0.5;exitY=1;exitDx=0;exitDy=0;entryX=0.5;entryY=0;entryDx=0;entryDy=0;fontFamily=Helvetica;fontSize=12;fontColor=default;endArrow=none;endFill=0;strokeWidth=2;" edge="1" parent="1" source="G_j7bIVwT-zga_MA3Yqq-2" target="G_j7bIVwT-zga_MA3Yqq-6">
          <mxGeometry relative="1" as="geometry" />
        </mxCell>
        <mxCell id="G_j7bIVwT-zga_MA3Yqq-2" value="&lt;font face=&quot;Cascadia Mono&quot;&gt;CreateArrayAboveThreshold&lt;/font&gt;" style="rounded=1;whiteSpace=wrap;html=1;arcSize=50;strokeWidth=2;" vertex="1" parent="1">
          <mxGeometry x="380" y="180" width="310" height="70" as="geometry" />
        </mxCell>
        <mxCell id="G_j7bIVwT-zga_MA3Yqq-3" value="&lt;font face=&quot;Cascadia Mono&quot;&gt;Входные параметры:&lt;br&gt;matrix — матрица&lt;br&gt;sideLength — длина стороны квадратной матрицы&lt;br&gt;threshold — граница, выше к-рой будут&lt;br&gt;выбираться числа&lt;br&gt;&lt;br&gt;Выходные параметры:&lt;br&gt;arrayLength — длина массива&lt;br&gt;&lt;br&gt;Возвращает:&lt;br&gt;новый массив&lt;br&gt;&lt;/font&gt;" style="strokeWidth=2;html=1;shape=mxgraph.flowchart.annotation_1;align=left;pointerEvents=1;rounded=1;strokeColor=default;verticalAlign=middle;fontFamily=Helvetica;fontSize=12;fontColor=default;fillColor=default;spacingLeft=30;" vertex="1" parent="1">
          <mxGeometry x="720" y="145" width="30" height="185" as="geometry" />
        </mxCell>
        <mxCell id="G_j7bIVwT-zga_MA3Yqq-4" style="rounded=0;orthogonalLoop=1;jettySize=auto;html=1;exitX=1;exitY=0.5;exitDx=0;exitDy=0;entryX=0;entryY=0.5;entryDx=0;entryDy=0;entryPerimeter=0;fontFamily=Helvetica;fontSize=12;fontColor=default;dashed=1;strokeWidth=2;endArrow=none;endFill=0;dashPattern=1 2;" edge="1" parent="1" source="G_j7bIVwT-zga_MA3Yqq-2" target="G_j7bIVwT-zga_MA3Yqq-3">
          <mxGeometry relative="1" as="geometry" />
        </mxCell>
        <mxCell id="G_j7bIVwT-zga_MA3Yqq-5" style="edgeStyle=orthogonalEdgeStyle;shape=connector;rounded=0;orthogonalLoop=1;jettySize=auto;html=1;exitX=0.5;exitY=1;exitDx=0;exitDy=0;entryX=0.5;entryY=0;entryDx=0;entryDy=0;labelBackgroundColor=default;strokeColor=default;strokeWidth=2;align=center;verticalAlign=middle;fontFamily=Helvetica;fontSize=12;fontColor=default;endArrow=none;endFill=0;" edge="1" parent="1" source="G_j7bIVwT-zga_MA3Yqq-6" target="G_j7bIVwT-zga_MA3Yqq-8">
          <mxGeometry relative="1" as="geometry" />
        </mxCell>
        <mxCell id="G_j7bIVwT-zga_MA3Yqq-6" value="arr = new int[sideLength * sideLength]" style="rounded=0;whiteSpace=wrap;html=1;strokeColor=default;strokeWidth=2;align=center;verticalAlign=middle;fontFamily=Cascadia Mono;fontSize=12;fontColor=default;fillColor=default;" vertex="1" parent="1">
          <mxGeometry x="380" y="290" width="310" height="60" as="geometry" />
        </mxCell>
        <mxCell id="G_j7bIVwT-zga_MA3Yqq-7" style="edgeStyle=orthogonalEdgeStyle;shape=connector;rounded=0;orthogonalLoop=1;jettySize=auto;html=1;exitX=0.5;exitY=1;exitDx=0;exitDy=0;entryX=0.5;entryY=0;entryDx=0;entryDy=0;labelBackgroundColor=default;strokeColor=default;strokeWidth=2;align=center;verticalAlign=middle;fontFamily=Helvetica;fontSize=12;fontColor=default;endArrow=none;endFill=0;" edge="1" parent="1" source="G_j7bIVwT-zga_MA3Yqq-8" target="G_j7bIVwT-zga_MA3Yqq-10">
          <mxGeometry relative="1" as="geometry" />
        </mxCell>
        <mxCell id="G_j7bIVwT-zga_MA3Yqq-8" value="arrayLength = 0" style="rounded=0;whiteSpace=wrap;html=1;strokeColor=default;strokeWidth=2;align=center;verticalAlign=middle;fontFamily=Cascadia Mono;fontSize=12;fontColor=default;fillColor=default;" vertex="1" parent="1">
          <mxGeometry x="380" y="390" width="310" height="60" as="geometry" />
        </mxCell>
        <mxCell id="G_j7bIVwT-zga_MA3Yqq-9" style="edgeStyle=orthogonalEdgeStyle;shape=connector;rounded=0;orthogonalLoop=1;jettySize=auto;html=1;exitX=0.5;exitY=1;exitDx=0;exitDy=0;entryX=0.5;entryY=0;entryDx=0;entryDy=0;labelBackgroundColor=default;strokeColor=default;strokeWidth=2;align=center;verticalAlign=middle;fontFamily=Cascadia Mono;fontSize=12;fontColor=default;endArrow=none;endFill=0;" edge="1" parent="1" source="G_j7bIVwT-zga_MA3Yqq-10" target="G_j7bIVwT-zga_MA3Yqq-14">
          <mxGeometry relative="1" as="geometry" />
        </mxCell>
        <mxCell id="G_j7bIVwT-zga_MA3Yqq-10" value="i = 0; i &amp;lt; sideLength; i++" style="shape=loopLimit;whiteSpace=wrap;html=1;rounded=0;strokeColor=default;strokeWidth=2;align=center;verticalAlign=middle;fontFamily=Cascadia Mono;fontSize=12;fontColor=default;fillColor=default;arcSize=0;" vertex="1" parent="1">
          <mxGeometry x="380" y="490" width="310" height="60" as="geometry" />
        </mxCell>
        <mxCell id="G_j7bIVwT-zga_MA3Yqq-11" style="edgeStyle=orthogonalEdgeStyle;shape=connector;rounded=0;orthogonalLoop=1;jettySize=auto;html=1;exitX=0.5;exitY=1;exitDx=0;exitDy=0;entryX=0.5;entryY=0;entryDx=0;entryDy=0;labelBackgroundColor=default;strokeColor=default;strokeWidth=2;align=center;verticalAlign=middle;fontFamily=Cascadia Mono;fontSize=12;fontColor=default;endArrow=none;endFill=0;" edge="1" parent="1" source="G_j7bIVwT-zga_MA3Yqq-12" target="G_j7bIVwT-zga_MA3Yqq-16">
          <mxGeometry relative="1" as="geometry" />
        </mxCell>
        <mxCell id="G_j7bIVwT-zga_MA3Yqq-12" value="j" style="shape=loopLimit;whiteSpace=wrap;html=1;rounded=1;strokeColor=default;strokeWidth=2;align=center;verticalAlign=middle;fontFamily=Cascadia Mono;fontSize=12;fontColor=default;fillColor=default;arcSize=0;flipV=1;" vertex="1" parent="1">
          <mxGeometry x="380" y="910" width="310" height="60" as="geometry" />
        </mxCell>
        <mxCell id="G_j7bIVwT-zga_MA3Yqq-13" style="edgeStyle=orthogonalEdgeStyle;shape=connector;rounded=0;orthogonalLoop=1;jettySize=auto;html=1;exitX=0.5;exitY=1;exitDx=0;exitDy=0;entryX=0.5;entryY=0;entryDx=0;entryDy=0;labelBackgroundColor=default;strokeColor=default;strokeWidth=2;align=center;verticalAlign=middle;fontFamily=Cascadia Mono;fontSize=12;fontColor=default;endArrow=none;endFill=0;" edge="1" parent="1" source="G_j7bIVwT-zga_MA3Yqq-14" target="G_j7bIVwT-zga_MA3Yqq-21">
          <mxGeometry relative="1" as="geometry" />
        </mxCell>
        <mxCell id="G_j7bIVwT-zga_MA3Yqq-14" value="j = 0; j &amp;lt; sideLength; j++" style="shape=loopLimit;whiteSpace=wrap;html=1;rounded=0;strokeColor=default;strokeWidth=2;align=center;verticalAlign=middle;fontFamily=Cascadia Mono;fontSize=12;fontColor=default;fillColor=default;arcSize=0;size=20;" vertex="1" parent="1">
          <mxGeometry x="380" y="590" width="310" height="60" as="geometry" />
        </mxCell>
        <mxCell id="G_j7bIVwT-zga_MA3Yqq-33" style="edgeStyle=orthogonalEdgeStyle;shape=connector;rounded=0;orthogonalLoop=1;jettySize=auto;html=1;exitX=0.5;exitY=1;exitDx=0;exitDy=0;entryX=0.5;entryY=0;entryDx=0;entryDy=0;labelBackgroundColor=default;strokeColor=default;strokeWidth=2;align=center;verticalAlign=middle;fontFamily=Cascadia Mono;fontSize=12;fontColor=default;endArrow=none;endFill=0;" edge="1" parent="1" source="G_j7bIVwT-zga_MA3Yqq-16" target="G_j7bIVwT-zga_MA3Yqq-32">
          <mxGeometry relative="1" as="geometry" />
        </mxCell>
        <mxCell id="G_j7bIVwT-zga_MA3Yqq-16" value="i" style="shape=loopLimit;whiteSpace=wrap;html=1;rounded=1;strokeColor=default;strokeWidth=2;align=center;verticalAlign=middle;fontFamily=Cascadia Mono;fontSize=12;fontColor=default;fillColor=default;arcSize=0;flipV=1;" vertex="1" parent="1">
          <mxGeometry x="380" y="1010" width="310" height="60" as="geometry" />
        </mxCell>
        <mxCell id="G_j7bIVwT-zga_MA3Yqq-17" style="edgeStyle=orthogonalEdgeStyle;shape=connector;rounded=0;orthogonalLoop=1;jettySize=auto;html=1;exitX=1;exitY=0.5;exitDx=0;exitDy=0;entryX=0.5;entryY=0;entryDx=0;entryDy=0;labelBackgroundColor=default;strokeColor=default;strokeWidth=2;align=center;verticalAlign=middle;fontFamily=Cascadia Mono;fontSize=12;fontColor=default;endArrow=none;endFill=0;" edge="1" parent="1" source="G_j7bIVwT-zga_MA3Yqq-21" target="G_j7bIVwT-zga_MA3Yqq-23">
          <mxGeometry relative="1" as="geometry" />
        </mxCell>
        <mxCell id="G_j7bIVwT-zga_MA3Yqq-18" value="да" style="edgeLabel;html=1;align=center;verticalAlign=middle;resizable=0;points=[];fontSize=12;fontFamily=Cascadia Mono;fontColor=default;" vertex="1" connectable="0" parent="G_j7bIVwT-zga_MA3Yqq-17">
          <mxGeometry x="-0.39" y="-1" relative="1" as="geometry">
            <mxPoint as="offset" />
          </mxGeometry>
        </mxCell>
        <mxCell id="G_j7bIVwT-zga_MA3Yqq-19" style="edgeStyle=orthogonalEdgeStyle;shape=connector;rounded=0;orthogonalLoop=1;jettySize=auto;html=1;exitX=0;exitY=0.5;exitDx=0;exitDy=0;entryX=0.5;entryY=0;entryDx=0;entryDy=0;labelBackgroundColor=default;strokeColor=default;strokeWidth=2;align=center;verticalAlign=middle;fontFamily=Cascadia Mono;fontSize=12;fontColor=default;endArrow=none;endFill=0;" edge="1" parent="1" source="G_j7bIVwT-zga_MA3Yqq-21">
          <mxGeometry relative="1" as="geometry">
            <Array as="points">
              <mxPoint x="310" y="730" />
              <mxPoint x="310" y="890" />
              <mxPoint x="535" y="890" />
            </Array>
            <mxPoint x="535" y="910" as="targetPoint" />
          </mxGeometry>
        </mxCell>
        <mxCell id="G_j7bIVwT-zga_MA3Yqq-20" value="нет" style="edgeLabel;html=1;align=center;verticalAlign=middle;resizable=0;points=[];fontSize=12;fontFamily=Cascadia Mono;fontColor=default;" vertex="1" connectable="0" parent="G_j7bIVwT-zga_MA3Yqq-19">
          <mxGeometry x="-0.8484" y="5" relative="1" as="geometry">
            <mxPoint y="-5" as="offset" />
          </mxGeometry>
        </mxCell>
        <mxCell id="G_j7bIVwT-zga_MA3Yqq-21" value="matrix[i][j] &amp;gt; threshold" style="rhombus;whiteSpace=wrap;html=1;rounded=0;strokeColor=default;strokeWidth=2;align=center;verticalAlign=middle;fontFamily=Cascadia Mono;fontSize=12;fontColor=default;fillColor=default;arcSize=0;" vertex="1" parent="1">
          <mxGeometry x="380" y="690" width="310" height="80" as="geometry" />
        </mxCell>
        <mxCell id="G_j7bIVwT-zga_MA3Yqq-22" style="edgeStyle=orthogonalEdgeStyle;shape=connector;rounded=0;orthogonalLoop=1;jettySize=auto;html=1;exitX=0.5;exitY=1;exitDx=0;exitDy=0;entryX=0.5;entryY=0;entryDx=0;entryDy=0;labelBackgroundColor=default;strokeColor=default;strokeWidth=2;align=center;verticalAlign=middle;fontFamily=Cascadia Mono;fontSize=12;fontColor=default;endArrow=none;endFill=0;" edge="1" parent="1" source="G_j7bIVwT-zga_MA3Yqq-23">
          <mxGeometry relative="1" as="geometry">
            <mxPoint x="535" y="910" as="targetPoint" />
          </mxGeometry>
        </mxCell>
        <mxCell id="G_j7bIVwT-zga_MA3Yqq-23" value="arr[arrayLength++] = matrix[i][j]" style="rounded=0;whiteSpace=wrap;html=1;strokeColor=default;strokeWidth=2;align=center;verticalAlign=middle;fontFamily=Cascadia Mono;fontSize=12;fontColor=default;fillColor=default;" vertex="1" parent="1">
          <mxGeometry x="690" y="810" width="280" height="60" as="geometry" />
        </mxCell>
        <mxCell id="G_j7bIVwT-zga_MA3Yqq-31" value="&lt;font face=&quot;Cascadia Mono&quot;&gt;Конец&lt;/font&gt;" style="rounded=1;whiteSpace=wrap;html=1;arcSize=50;strokeWidth=2;" vertex="1" parent="1">
          <mxGeometry x="380" y="1210" width="310" height="70" as="geometry" />
        </mxCell>
        <mxCell id="G_j7bIVwT-zga_MA3Yqq-34" style="edgeStyle=orthogonalEdgeStyle;shape=connector;rounded=0;orthogonalLoop=1;jettySize=auto;html=1;exitX=0.5;exitY=1;exitDx=0;exitDy=0;entryX=0.5;entryY=0;entryDx=0;entryDy=0;labelBackgroundColor=default;strokeColor=default;strokeWidth=2;align=center;verticalAlign=middle;fontFamily=Cascadia Mono;fontSize=12;fontColor=default;endArrow=none;endFill=0;" edge="1" parent="1" source="G_j7bIVwT-zga_MA3Yqq-32" target="G_j7bIVwT-zga_MA3Yqq-31">
          <mxGeometry relative="1" as="geometry" />
        </mxCell>
        <mxCell id="G_j7bIVwT-zga_MA3Yqq-32" value="CreateArrayAboveThreshold =&amp;nbsp;arr" style="rounded=0;whiteSpace=wrap;html=1;strokeColor=default;strokeWidth=2;align=center;verticalAlign=middle;fontFamily=Cascadia Mono;fontSize=12;fontColor=default;fillColor=default;" vertex="1" parent="1">
          <mxGeometry x="380" y="1110" width="310" height="60" as="geometry" />
        </mxCell>
      </root>
    </mxGraphModel>
  </diagram>
  <diagram name="Событийная" id="B7xPLeffQVeUZEq0d7PA">
    <mxGraphModel dx="2049" dy="1083" grid="1" gridSize="10" guides="1" tooltips="1" connect="1" arrows="1" fold="1" page="1" pageScale="1" pageWidth="1600" pageHeight="1200" math="0" shadow="0">
      <root>
        <mxCell id="LgfqwrdV0chA7b1CduBd-0" />
        <mxCell id="LgfqwrdV0chA7b1CduBd-1" parent="LgfqwrdV0chA7b1CduBd-0" />
        <mxCell id="1lx8gkwl_eHs_idbSP_l-10" style="edgeStyle=orthogonalEdgeStyle;shape=connector;rounded=0;orthogonalLoop=1;jettySize=auto;html=1;exitX=0.5;exitY=1;exitDx=0;exitDy=0;labelBackgroundColor=default;strokeColor=default;strokeWidth=2;align=center;verticalAlign=middle;fontFamily=Helvetica;fontSize=16;fontColor=default;endArrow=none;endFill=0;" parent="LgfqwrdV0chA7b1CduBd-1" source="LgfqwrdV0chA7b1CduBd-3" target="1lx8gkwl_eHs_idbSP_l-0" edge="1">
          <mxGeometry relative="1" as="geometry" />
        </mxCell>
        <mxCell id="LgfqwrdV0chA7b1CduBd-3" value="&lt;font style=&quot;font-size: 16px;&quot;&gt;CalculateButton_Click&lt;/font&gt;" style="rounded=1;whiteSpace=wrap;html=1;arcSize=50;strokeWidth=2;fontFamily=Helvetica;fontSize=16;" parent="LgfqwrdV0chA7b1CduBd-1" vertex="1">
          <mxGeometry x="560" y="130" width="310" height="70" as="geometry" />
        </mxCell>
        <mxCell id="1lx8gkwl_eHs_idbSP_l-9" style="edgeStyle=orthogonalEdgeStyle;shape=connector;rounded=0;orthogonalLoop=1;jettySize=auto;html=1;exitX=0.5;exitY=1;exitDx=0;exitDy=0;entryX=0.5;entryY=0;entryDx=0;entryDy=0;labelBackgroundColor=default;strokeColor=default;strokeWidth=2;align=center;verticalAlign=middle;fontFamily=Helvetica;fontSize=16;fontColor=default;endArrow=none;endFill=0;" parent="LgfqwrdV0chA7b1CduBd-1" target="1lx8gkwl_eHs_idbSP_l-3" edge="1">
          <mxGeometry relative="1" as="geometry">
            <mxPoint x="715" y="310" as="sourcePoint" />
          </mxGeometry>
        </mxCell>
        <mxCell id="LgfqwrdV0chA7b1CduBd-25" value="&lt;font style=&quot;font-size: 16px;&quot;&gt;Конец&lt;/font&gt;" style="rounded=1;whiteSpace=wrap;html=1;arcSize=50;strokeWidth=2;fontFamily=Helvetica;fontSize=16;" parent="LgfqwrdV0chA7b1CduBd-1" vertex="1">
          <mxGeometry x="560" y="1030" width="310" height="70" as="geometry" />
        </mxCell>
        <mxCell id="LgfqwrdV0chA7b1CduBd-26" style="edgeStyle=orthogonalEdgeStyle;shape=connector;rounded=0;orthogonalLoop=1;jettySize=auto;html=1;exitX=0.5;exitY=1;exitDx=0;exitDy=0;entryX=0.5;entryY=0;entryDx=0;entryDy=0;labelBackgroundColor=default;strokeColor=default;strokeWidth=2;align=center;verticalAlign=middle;fontFamily=Helvetica;fontSize=16;fontColor=default;endArrow=none;endFill=0;" parent="LgfqwrdV0chA7b1CduBd-1" source="LgfqwrdV0chA7b1CduBd-27" target="LgfqwrdV0chA7b1CduBd-25" edge="1">
          <mxGeometry relative="1" as="geometry" />
        </mxCell>
        <mxCell id="LgfqwrdV0chA7b1CduBd-27" value="delete[] mas" style="rounded=0;whiteSpace=wrap;html=1;strokeColor=default;strokeWidth=2;align=center;verticalAlign=middle;fontFamily=Helvetica;fontSize=16;fontColor=default;fillColor=default;" parent="LgfqwrdV0chA7b1CduBd-1" vertex="1">
          <mxGeometry x="560" y="930" width="310" height="60" as="geometry" />
        </mxCell>
        <mxCell id="1lx8gkwl_eHs_idbSP_l-0" value="n,m" style="shape=parallelogram;perimeter=parallelogramPerimeter;whiteSpace=wrap;html=1;fixedSize=1;rounded=0;strokeColor=default;strokeWidth=2;align=center;verticalAlign=middle;fontFamily=Helvetica;fontSize=16;fontColor=default;fillColor=default;" parent="LgfqwrdV0chA7b1CduBd-1" vertex="1">
          <mxGeometry x="560" y="250" width="310" height="60" as="geometry" />
        </mxCell>
        <mxCell id="1lx8gkwl_eHs_idbSP_l-5" value="" style="edgeStyle=orthogonalEdgeStyle;shape=connector;rounded=0;orthogonalLoop=1;jettySize=auto;html=1;labelBackgroundColor=default;strokeColor=default;strokeWidth=2;align=center;verticalAlign=middle;fontFamily=Helvetica;fontSize=16;fontColor=default;endArrow=none;endFill=0;" parent="LgfqwrdV0chA7b1CduBd-1" source="1lx8gkwl_eHs_idbSP_l-3" target="1lx8gkwl_eHs_idbSP_l-4" edge="1">
          <mxGeometry relative="1" as="geometry" />
        </mxCell>
        <mxCell id="1lx8gkwl_eHs_idbSP_l-3" value="Functions_Class::gen_matrix(matr, n, m)" style="rounded=0;whiteSpace=wrap;html=1;strokeColor=default;strokeWidth=2;align=center;verticalAlign=middle;fontFamily=Helvetica;fontSize=16;fontColor=default;fillColor=default;" parent="LgfqwrdV0chA7b1CduBd-1" vertex="1">
          <mxGeometry x="560" y="350" width="310" height="60" as="geometry" />
        </mxCell>
        <mxCell id="1lx8gkwl_eHs_idbSP_l-8" value="" style="edgeStyle=orthogonalEdgeStyle;shape=connector;rounded=0;orthogonalLoop=1;jettySize=auto;html=1;labelBackgroundColor=default;strokeColor=default;strokeWidth=2;align=center;verticalAlign=middle;fontFamily=Helvetica;fontSize=16;fontColor=default;endArrow=none;endFill=0;" parent="LgfqwrdV0chA7b1CduBd-1" source="1lx8gkwl_eHs_idbSP_l-4" target="1lx8gkwl_eHs_idbSP_l-7" edge="1">
          <mxGeometry relative="1" as="geometry" />
        </mxCell>
        <mxCell id="1lx8gkwl_eHs_idbSP_l-4" value="Functions_Class::output_matr(matr, n, m, dataGridView1)" style="whiteSpace=wrap;html=1;fontFamily=Helvetica;rounded=0;strokeWidth=2;fontSize=16;" parent="LgfqwrdV0chA7b1CduBd-1" vertex="1">
          <mxGeometry x="560" y="450" width="310" height="60" as="geometry" />
        </mxCell>
        <mxCell id="1lx8gkwl_eHs_idbSP_l-12" style="edgeStyle=orthogonalEdgeStyle;shape=connector;rounded=0;orthogonalLoop=1;jettySize=auto;html=1;exitX=0.5;exitY=1;exitDx=0;exitDy=0;labelBackgroundColor=default;strokeColor=default;strokeWidth=2;align=center;verticalAlign=middle;fontFamily=Helvetica;fontSize=16;fontColor=default;endArrow=none;endFill=0;" parent="LgfqwrdV0chA7b1CduBd-1" source="1lx8gkwl_eHs_idbSP_l-7" target="1lx8gkwl_eHs_idbSP_l-11" edge="1">
          <mxGeometry relative="1" as="geometry" />
        </mxCell>
        <mxCell id="1lx8gkwl_eHs_idbSP_l-7" value="h = Functions_Class::create_array_7(matr, n, m, mas)" style="whiteSpace=wrap;html=1;fontFamily=Helvetica;rounded=0;strokeWidth=2;fontSize=16;" parent="LgfqwrdV0chA7b1CduBd-1" vertex="1">
          <mxGeometry x="560" y="550" width="310" height="60" as="geometry" />
        </mxCell>
        <mxCell id="1lx8gkwl_eHs_idbSP_l-14" style="edgeStyle=orthogonalEdgeStyle;shape=connector;rounded=0;orthogonalLoop=1;jettySize=auto;html=1;exitX=0.5;exitY=1;exitDx=0;exitDy=0;labelBackgroundColor=default;strokeColor=default;strokeWidth=2;align=center;verticalAlign=middle;fontFamily=Helvetica;fontSize=16;fontColor=default;endArrow=none;endFill=0;" parent="LgfqwrdV0chA7b1CduBd-1" source="1lx8gkwl_eHs_idbSP_l-11" edge="1">
          <mxGeometry relative="1" as="geometry">
            <mxPoint x="715" y="750" as="targetPoint" />
          </mxGeometry>
        </mxCell>
        <mxCell id="1lx8gkwl_eHs_idbSP_l-11" value="Functions_Class::get_mean(matr, n, m)" style="shape=parallelogram;perimeter=parallelogramPerimeter;whiteSpace=wrap;html=1;fixedSize=1;rounded=0;strokeColor=default;strokeWidth=2;align=center;verticalAlign=middle;fontFamily=Helvetica;fontSize=16;fontColor=default;fillColor=default;" parent="LgfqwrdV0chA7b1CduBd-1" vertex="1">
          <mxGeometry x="560" y="650" width="310" height="60" as="geometry" />
        </mxCell>
        <mxCell id="1lx8gkwl_eHs_idbSP_l-19" style="edgeStyle=orthogonalEdgeStyle;shape=connector;rounded=0;orthogonalLoop=1;jettySize=auto;html=1;exitX=0.5;exitY=1;exitDx=0;exitDy=0;entryX=0.5;entryY=0;entryDx=0;entryDy=0;labelBackgroundColor=default;strokeColor=default;strokeWidth=2;align=center;verticalAlign=middle;fontFamily=Helvetica;fontSize=16;fontColor=default;endArrow=none;endFill=0;" parent="LgfqwrdV0chA7b1CduBd-1" source="1lx8gkwl_eHs_idbSP_l-15" target="1lx8gkwl_eHs_idbSP_l-18" edge="1">
          <mxGeometry relative="1" as="geometry" />
        </mxCell>
        <mxCell id="1lx8gkwl_eHs_idbSP_l-15" value="Functions_Class::output_mas(mas, h, dataGridView2)" style="rounded=0;whiteSpace=wrap;html=1;strokeColor=default;strokeWidth=2;align=center;verticalAlign=middle;fontFamily=Helvetica;fontSize=16;fontColor=default;fillColor=default;" parent="LgfqwrdV0chA7b1CduBd-1" vertex="1">
          <mxGeometry x="560" y="750" width="310" height="60" as="geometry" />
        </mxCell>
        <mxCell id="1lx8gkwl_eHs_idbSP_l-20" style="edgeStyle=orthogonalEdgeStyle;shape=connector;rounded=0;orthogonalLoop=1;jettySize=auto;html=1;exitX=0.5;exitY=1;exitDx=0;exitDy=0;labelBackgroundColor=default;strokeColor=default;strokeWidth=2;align=center;verticalAlign=middle;fontFamily=Helvetica;fontSize=16;fontColor=default;endArrow=none;endFill=0;" parent="LgfqwrdV0chA7b1CduBd-1" source="1lx8gkwl_eHs_idbSP_l-18" target="LgfqwrdV0chA7b1CduBd-27" edge="1">
          <mxGeometry relative="1" as="geometry" />
        </mxCell>
        <mxCell id="1lx8gkwl_eHs_idbSP_l-18" value="Functions_Class::clear(matr, n)" style="rounded=0;whiteSpace=wrap;html=1;strokeColor=default;strokeWidth=2;align=center;verticalAlign=middle;fontFamily=Helvetica;fontSize=16;fontColor=default;fillColor=default;" parent="LgfqwrdV0chA7b1CduBd-1" vertex="1">
          <mxGeometry x="560" y="840" width="310" height="60" as="geometry" />
        </mxCell>
      </root>
    </mxGraphModel>
  </diagram>
</mxfile>
